<svg width="11" height="11" viewBox="0 0 11 11" fill="none" xmlns="http://www.w3.org/2000/svg">
<path d="M0.356126 8.33509C-0.0343987 8.72562 -0.0343986 9.35878 0.356126 9.74931C0.74665 10.1398 1.37981 10.1398 1.77034 9.74931L5.05259 6.46706L8.33485 9.74932C8.72537 10.1398 9.35854 10.1398 9.74906 9.74932C10.1396 9.35879 10.1396 8.72563 9.74906 8.3351L6.4668 5.05284L9.74906 1.77058C10.1396 1.38006 10.1396 0.746894 9.74906 0.356369C9.35854 -0.0341544 8.72537 -0.0341544 8.33485 0.35637L5.05259 3.63863L1.77034 0.356377C1.37981 -0.0341469 0.74665 -0.0341469 0.356126 0.356377C-0.0343987 0.746902 -0.0343987 1.38007 0.356126 1.77059L3.63838 5.05284L0.356126 8.33509Z" fill="#f5f2e9"/>
</svg>
