<svg width="11" height="11" viewBox="0 0 11 11" fill="none" xmlns="http://www.w3.org/2000/svg">
<path d="M0.355393 8.33509C-0.0351311 8.72562 -0.035131 9.35878 0.355393 9.74931C0.745918 10.1398 1.37908 10.1398 1.76961 9.74931L5.05186 6.46706L8.33412 9.74932C8.72464 10.1398 9.35781 10.1398 9.74833 9.74932C10.1389 9.35879 10.1389 8.72563 9.74833 8.3351L6.46607 5.05284L9.74833 1.77058C10.1389 1.38006 10.1389 0.746894 9.74833 0.356369C9.35781 -0.0341544 8.72464 -0.0341544 8.33412 0.35637L5.05186 3.63863L1.76961 0.356377C1.37908 -0.0341469 0.745917 -0.0341469 0.355393 0.356377C-0.0351311 0.746902 -0.0351311 1.38007 0.355393 1.77059L3.63764 5.05284L0.355393 8.33509Z" fill="#B9C4D5"/>
</svg>
