<svg width="20" height="20" viewBox="0 0 20 20" fill="none" xmlns="http://www.w3.org/2000/svg">
<path d="M4.5 18L1.43074 11.423C1.19414 10.916 1.41952 10.3135 1.93078 10.0863L9.59386 6.68051C9.85243 6.56559 10.1476 6.56559 10.4061 6.68051L18.0692 10.0863C18.5805 10.3135 18.8059 10.916 18.5693 11.423L15.5 18" stroke="#627ca3" stroke-width="1.5"/>
<path d="M5.42654 4.20142L5.85663 4.81585H5.85663L5.42654 4.20142ZM9.42654 1.40142L8.99644 0.787L8.99644 0.787L9.42654 1.40142ZM10.5735 1.40142L11.0036 0.787V0.787L10.5735 1.40142ZM14.5735 4.20142L14.1434 4.81585V4.81585L14.5735 4.20142ZM5.75 8.5V5.02066H4.25V8.5H5.75ZM5.85663 4.81585L9.85663 2.01585L8.99644 0.787L4.99644 3.587L5.85663 4.81585ZM10.1434 2.01585L14.1434 4.81585L15.0036 3.587L11.0036 0.787L10.1434 2.01585ZM14.25 5.02066V8.5H15.75V5.02066H14.25ZM9.85663 2.01585C9.94271 1.95559 10.0573 1.95559 10.1434 2.01585L11.0036 0.787C10.401 0.365207 9.599 0.365208 8.99644 0.787L9.85663 2.01585ZM14.1434 4.81585C14.2102 4.86263 14.25 4.93908 14.25 5.02066H15.75C15.75 4.44961 15.4714 3.91447 15.0036 3.587L14.1434 4.81585ZM5.75 5.02066C5.75 4.93908 5.7898 4.86263 5.85663 4.81585L4.99644 3.587C4.52862 3.91447 4.25 4.44961 4.25 5.02066H5.75Z" fill="#627ca3"/>
<path d="M10 7V19" stroke="#627ca3" stroke-width="1.5"/>
<rect x="9" y="4" width="2" height="1" rx="0.5" fill="#627ca3"/>
<path d="M1 18.5C1.52632 18.8773 2.95789 19.4055 4.47368 18.5C5.10526 18.1227 6.74737 17.5945 8.26316 18.5C8.78948 18.8773 10.2211 19.4055 11.7368 18.5C12.3684 18.1227 14.0105 17.5944 15.5263 18.5C16.0526 18.8773 17.4842 19.4055 19 18.5" stroke="#627ca3" stroke-width="1.5"/>
</svg>
