<svg width="20" height="20" viewBox="0 0 20 20" fill="none" xmlns="http://www.w3.org/2000/svg">
<g clip-path="url(#clip0)">
<path d="M18.9763 7.90052L17.5725 7.66237C17.4263 7.19026 17.2383 6.73487 17.0085 6.30036L17.8357 5.14307C18.1866 4.65007 18.1323 3.97742 17.702 3.55126L16.457 2.30623C16.223 2.07227 15.9138 1.94275 15.5838 1.94275C15.3247 1.94275 15.0782 2.02213 14.8694 2.17254L13.7079 2.99977C13.2567 2.76163 12.7845 2.56527 12.2957 2.41904L12.0618 1.03196C11.9615 0.434508 11.4476 0 10.8418 0H9.08288C8.47708 0 7.96319 0.434508 7.86292 1.03196L7.62059 2.45246C7.15266 2.59869 6.69727 2.79088 6.26276 3.02484L5.11382 2.19761C4.90492 2.0472 4.65424 1.96782 4.39521 1.96782C4.06515 1.96782 3.75181 2.09733 3.52202 2.3313L2.27281 3.57633C1.84666 4.00248 1.78817 4.67513 2.13911 5.16813L2.97471 6.34214C2.74492 6.78082 2.56109 7.23622 2.41904 7.70833L1.03196 7.9423C0.434508 8.04257 0 8.55646 0 9.16226V10.9212C0 11.527 0.434508 12.0409 1.03196 12.1411L2.45246 12.3835C2.59869 12.8514 2.79088 13.3068 3.02484 13.7413L2.20178 14.8861C1.85083 15.3791 1.90515 16.0517 2.33548 16.4779L3.58051 17.7229C3.81448 17.9569 4.12364 18.0864 4.4537 18.0864C4.71274 18.0864 4.95924 18.007 5.16813 17.8566L6.34214 17.021C6.76411 17.2424 7.20698 17.4221 7.66237 17.5641L7.89634 18.9679C7.99661 19.5654 8.5105 19.9999 9.1163 19.9999H10.8794C11.4852 19.9999 11.9991 19.5654 12.0994 18.9679L12.3375 17.5641C12.8096 17.4179 13.265 17.2299 13.6995 17.0001L14.8568 17.8273C15.0657 17.9777 15.3164 18.0571 15.5754 18.0571C15.9055 18.0571 16.2147 17.9276 16.4486 17.6936L17.6936 16.4486C18.1198 16.0225 18.1783 15.3498 17.8273 14.8568L17.0001 13.6953C17.2299 13.2567 17.4221 12.8013 17.5641 12.3333L18.9679 12.0994C19.5654 11.9991 20 11.4852 20 10.8794V9.12048C20.0082 8.51468 19.5737 8.00079 18.9763 7.90052ZM18.496 10.84C18.496 10.892 18.46 10.936 18.408 10.944L16.728 11.224C16.516 11.26 16.348 11.416 16.296 11.62C16.144 12.208 15.912 12.772 15.6 13.296C15.492 13.48 15.5 13.708 15.624 13.884L16.612 15.276C16.64 15.316 16.636 15.376 16.6 15.412L15.408 16.604C15.38 16.632 15.352 16.636 15.332 16.636C15.308 16.636 15.288 16.628 15.272 16.616L13.884 15.628C13.712 15.504 13.48 15.496 13.296 15.604C12.772 15.916 12.208 16.148 11.62 16.3C11.412 16.352 11.256 16.524 11.224 16.732L10.94 18.412C10.932 18.464 10.888 18.5 10.836 18.5H9.152C9.1 18.5 9.056 18.464 9.048 18.412L8.768 16.732C8.732 16.52 8.576 16.352 8.372 16.3C7.8 16.152 7.248 15.924 6.732 15.628C6.648 15.58 6.552 15.556 6.46 15.556C6.352 15.556 6.24 15.588 6.148 15.656L4.748 16.652C4.728 16.664 4.708 16.672 4.688 16.672C4.672 16.672 4.64 16.668 4.612 16.64L3.42 15.448C3.384 15.412 3.38 15.356 3.408 15.312L4.392 13.932C4.516 13.756 4.524 13.524 4.416 13.34C4.104 12.82 3.864 12.256 3.712 11.668C3.656 11.464 3.488 11.308 3.28 11.272L1.588 10.984C1.536 10.976 1.5 10.932 1.5 10.88V9.196C1.5 9.144 1.536 9.1 1.588 9.092L3.256 8.812C3.468 8.776 3.64 8.62 3.692 8.412C3.84 7.824 4.068 7.256 4.376 6.732C4.484 6.548 4.472 6.32 4.348 6.148L3.352 4.748C3.324 4.708 3.328 4.648 3.364 4.612L4.556 3.42C4.584 3.392 4.612 3.388 4.632 3.388C4.656 3.388 4.676 3.396 4.692 3.408L6.072 4.392C6.248 4.516 6.48 4.524 6.664 4.416C7.184 4.104 7.748 3.864 8.336 3.712C8.54 3.656 8.696 3.488 8.732 3.28L9.02 1.588C9.028 1.536 9.072 1.5 9.124 1.5H10.808C10.86 1.5 10.904 1.536 10.912 1.588L11.192 3.256C11.228 3.468 11.384 3.64 11.592 3.692C12.196 3.844 12.772 4.08 13.308 4.396C13.492 4.504 13.72 4.496 13.896 4.372L15.276 3.38C15.296 3.368 15.316 3.36 15.336 3.36C15.352 3.36 15.384 3.364 15.412 3.392L16.604 4.584C16.64 4.62 16.644 4.676 16.616 4.72L15.628 6.108C15.504 6.28 15.496 6.512 15.604 6.696C15.916 7.22 16.148 7.784 16.3 8.372C16.352 8.58 16.524 8.736 16.732 8.768L18.412 9.052C18.464 9.06 18.5 9.104 18.5 9.156V10.84H18.496ZM10 5.5C7.51694 5.5 5.5 7.51694 5.5 10C5.5 12.4831 7.51694 14.5 10 14.5C12.4831 14.5 14.5 12.4831 14.5 10C14.5 7.51694 12.4831 5.5 10 5.5ZM10 13C8.34469 13 7 11.6553 7 10C7 8.34469 8.34469 7 10 7C11.6553 7 13 8.34469 13 10C13 11.6553 11.6553 13 10 13Z" fill="#627ca3"/>
</g>
<defs>
<clipPath id="clip0">
<path d="M0 0H20V20H0V0Z" fill="white"/>
</clipPath>
</defs>
</svg>
