<?xml version="1.0" encoding="utf-8"?>
<!-- Generator: Adobe Illustrator 23.0.0, SVG Export Plug-In . SVG Version: 6.00 Build 0)  -->
<svg version="1.1" id="圖層_1" xmlns="http://www.w3.org/2000/svg" xmlns:xlink="http://www.w3.org/1999/xlink" x="0px" y="0px"
	 viewBox="0 0 289.7 653.2" style="enable-background:new 0 0 289.7 653.2;" xml:space="preserve">
<style type="text/css">
	.st0{fill:#008087;}
</style>
<g>
	<path class="st0" d="M288.6,453.8c-0.3-17.8-3.1-35.4-2.9-53.2c0-1.6-1.3-2.8-2.8-2.8c-20.2-0.5-40.4-1.4-60.6-2.1
		c-1.8-0.1-3.2,1.9-2.7,3.6c2.3,8.1,4.5,16.3,6.9,24.4c1.2,3.9,2.3,7.8,3.7,11.6c0.7,2.1,1.5,5.4,3.9,6.1c0.3-1.9,0.5-3.7,0.8-5.6
		c-30.7,0-61.4-1.1-92.2-1.2c-30.8-0.2-61.6,0.3-92.3,0.8c-8.5,0.1-16.9,0.3-25.4,0.5c-4.5,0.1-8.9,0-13.4,0.3
		c-1.8,0.1-3.5,0.6-5.3,0.8c-1.6,0.2-2.8,1.2-2.8,2.8c-0.8,25.6,0.7,51.2,1.8,76.7c1.1,25.9,0.9,51.6,0.2,77.5
		c-0.4,14.6-0.5,29.2,0.7,43.8c0.1,1.2,0.8,2.5,2.1,2.7c16,2.9,31.8,0.1,47.9,0c16.8-0.1,33.6,0.1,50.4,0.4
		c33.5,0.5,67.1,1,100.6,2.3c16.7,0.7,33.4,1.6,50.1,2.9c6.5,0.5,16.5,2.7,21.9-2.3c2.3-2.2,3.3-5.3,3.9-8.3
		c1-5.8,0.8-11.8,0.9-17.7c0.4-16.9,1.1-33.8,1.8-50.7C287.3,529.4,289.2,491.6,288.6,453.8c-0.1-3.7-5.7-3.7-5.7,0
		c0.5,32.4-0.8,64.8-2.2,97.2c-0.7,16.2-1.4,32.4-2,48.6c-0.3,8-0.5,16-0.6,23.9c-0.1,4.4,0.2,9.4-1.4,13.7c-2.1,6-11,4-15.8,3.6
		c-15.6-1.2-31.2-2.2-46.8-2.9c-32.1-1.4-64.2-1.9-96.3-2.4c-18.2-0.3-36.4-0.5-54.6-0.5c-8.7,0-17.3,0.4-25.9,0.9
		c-9.2,0.6-18.4,0.9-27.5-0.7c0.7,0.9,1.4,1.8,2.1,2.7c-2.1-25.7-0.1-51.5,0.1-77.2c0.2-25.8-1.6-51.6-2.5-77.4
		c-0.5-14.5-0.8-29-0.4-43.5c-0.9,0.9-1.9,1.9-2.8,2.8c1.6-0.2,3.2-0.6,4.8-0.8c3.4-0.4,7-0.2,10.4-0.3c7.8-0.2,15.5-0.3,23.3-0.5
		c15.3-0.3,30.5-0.5,45.8-0.7c30.8-0.3,61.5-0.3,92.3,0.3c17.4,0.3,34.7,0.7,52.1,0.7c3.2,0,3.8-4.7,0.8-5.6c1.3,0.4,1.2,1.6,1,0.3
		c-0.1-0.3-0.3-0.8-0.4-1.1c-0.6-1.5-1.1-3-1.6-4.5c-1.2-3.8-2.4-7.6-3.5-11.4c-2.1-7.1-4.1-14.3-6.1-21.5c-0.9,1.2-1.8,2.4-2.7,3.6
		c20.2,0.7,40.4,1.6,60.6,2.1c-0.9-0.9-1.9-1.9-2.8-2.8c-0.2,17.8,2.5,35.5,2.9,53.2C283,457.5,288.7,457.5,288.6,453.8z"/>
	<path class="st0" d="M229.4,554.8c-17.1,8.5-34-6.8-36.2-23.7c-1.6-12.2-1.1-27.9,7.8-37.4c8.5-9.1,24.5-9,33.8-1
		c8.6,7.3,11.7,19.4,11.4,30.3C246,535.3,240.9,548.6,229.4,554.8c-3.2,1.7-0.4,6.6,2.9,4.9c23.6-12.7,26.5-52.7,7.3-70.4
		c-10.6-9.8-28.8-11.2-40.2-1.8c-12.1,9.9-13.6,28.4-12,42.9c2.4,21.5,23.2,40.1,44.8,29.4C235.6,558,232.7,553.1,229.4,554.8z"/>
</g>
<path class="st0" d="M642.6,407.1c-0.8-2.9-1.6-5.7-2.4-8.6c-2.7-9.6-5.4-19.2-8-28.9c-6.7-24.7-13.1-49.4-19.9-74.1
	c-7.2-26.2-16.5-51.8-25.8-77.4c-13.1-35.9-22.5-78.2-40.7-111.7c-6.6-12.1-8.7-9-16.1,0.9c-5.7,7.7-9.9,16.8-13.9,25.4
	c-11.5,24.4-20.7,49.9-29.6,75.4c-14.1,40.5-26.3,81.6-38.8,122.7c-6.8,22.4-15,45-19.3,68.1c-1,5.2-1.8,10.4-2.3,15.6
	c-0.9,8.4-1.4,16.8-1.6,25.3c0.5-0.1,1.1-0.1,1.6-0.2l3-0.6c38.5-0.9,77.1-1.4,115.6-1.6c36.2-0.3,72.2,1.3,108.4,1.2
	C651.3,438.7,643.4,409.9,642.6,407.1z"/>
<g>
	<path class="st0" d="M227.5,406.4c-6.6-23-12.8-46.1-18.9-69.1c-6.3-23.7-12.3-47.5-20-70.9c-7.2-22.1-15.8-43.7-23-65.8
		c-6.8-20.7-12.7-41.6-20.3-62c-3.6-9.6-7.5-19.1-12.2-28.3c-2.4-4.8-7-16.8-14.5-14c-3,1.1-5,4.1-6.9,6.6
		c-3.4,4.4-6.4,8.9-9.1,13.8c-5.4,9.9-10,20.4-14.4,30.7C69.4,191.6,55,237.9,40.9,283.9c-7.1,23.2-14.1,46.4-21.4,69.5
		C12.4,376,6.2,398.7,4.4,422.5c-0.4,5.8-0.7,11.6-0.9,17.4c0,1.4,1.3,3,2.8,2.8c1.6-0.2,3.2-0.6,4.8-0.8c3.4-0.4,7-0.2,10.4-0.3
		c7.8-0.2,15.5-0.3,23.3-0.5c15.3-0.3,30.5-0.5,45.8-0.7c30.8-0.3,61.5-0.3,92.3,0.3c17.4,0.3,34.7,0.7,52.1,0.7
		c3.2,0,3.8-4.7,0.8-5.6c2.7,0.8,1.1,1.5,1,0.3c0-0.3-0.3-0.8-0.4-1.1c-0.5-1.2-0.9-2.4-1.3-3.6c-1.1-3.2-2.1-6.5-3-9.8
		C230.4,416.6,229,411.5,227.5,406.4c-1-3.5-6.5-2-5.5,1.5c1.7,6.1,3.4,12.2,5.2,18.3c1,3.4,2,6.8,3.3,10.1c0.7,1.9,1.4,4.6,3.6,5.2
		c0.3-1.9,0.5-3.7,0.8-5.6c-30.7,0-61.4-1.1-92.2-1.2c-30.8-0.2-61.6,0.3-92.3,0.8c-8.5,0.1-16.9,0.3-25.4,0.5
		c-4.5,0.1-8.9,0-13.4,0.3c-1.8,0.1-3.5,0.6-5.3,0.8c0.9,0.9,1.9,1.9,2.8,2.8c0.4-11.5,1-23,2.8-34.4c1.8-11.1,4.5-22.1,7.6-33
		c6.4-22.3,13.7-44.3,20.4-66.4c13.6-44.6,27.3-89.2,43.9-132.8c4.2-10.9,8.5-21.8,13.4-32.4c4.4-9.7,8.7-19.6,14.5-28.5
		c1.4-2.2,3-4.3,4.6-6.4c1-1.3,2.2-3.2,3.7-4.2c1-0.6,0.8-0.6,1.7,0.2c1.7,1.5,2.7,3.8,3.8,5.8c4.9,8.9,8.9,18.2,12.6,27.6
		c7.6,19.5,13.5,39.7,19.8,59.7c6.7,20.9,14.6,41.4,21.7,62.3c15.1,44.2,25.3,89.8,37.9,134.7c1.5,5.3,3,10.6,4.5,15.8
		C223.1,411.4,228.5,409.9,227.5,406.4z"/>
</g>
<g>
	<path class="st0" d="M220.2,481.2c-8.1-0.3-16.1,1.7-22.1,7.4c-5.4,5.2-8.5,12.5-9.9,19.7c-3.3,16.9-1.1,36.9,13.3,48.2
		c14.1,11,32.7,6.7,42.5-7.5c7.8-11.2,9.6-26.4,6.6-39.6C247.2,494.3,236.2,482.2,220.2,481.2c-3.6-0.2-3.6,5.4,0,5.7
		c25.2,1.6,30.9,34.2,22.3,53.2c-5.5,12.3-18.9,21.4-32.4,15.1c-15.3-7.1-18.6-24.6-17.3-39.8c0.6-7,2.4-14.5,6.8-20.2
		c5-6.5,12.6-8.7,20.5-8.4C223.9,487,223.9,481.3,220.2,481.2z"/>
</g>
<path class="st0" d="M129.4,36.2l8-0.4l-0.6-10.9l-6.5,0.3l0.2-2.3c0.4-4.7,0.8-8.6,1.2-12.4l-10.9-1.2c-0.5,4.4-0.9,9.1-1.4,14.7
	l-0.2,1.7l-16.8,0.9l0.6,10.9l15.3-0.8l-0.2,2.3c-1.5,19.9-2.5,40-3,59.6l10.9,0.2c0.4-20,1.5-40.5,3.1-60.9L129.4,36.2z"/>
</svg>
