<?xml version="1.0" encoding="utf-8"?>
<!-- Generator: Adobe Illustrator 23.0.0, SVG Export Plug-In . SVG Version: 6.00 Build 0)  -->
<svg version="1.1" id="圖層_1" xmlns="http://www.w3.org/2000/svg" xmlns:xlink="http://www.w3.org/1999/xlink" x="0px" y="0px"
	 viewBox="0 0 200.5 217.9" style="enable-background:new 0 0 200.5 217.9;" xml:space="preserve">
<style type="text/css">
	.st0{fill:#008087;}
	.st1{fill:#FFFFFF;}
</style>
<g>
	<g>
		<path class="st0" d="M30,125.7c-14.9-25.3-26.3-52.4-28-82c-0.5-8.2,1.2-16.9,6.4-23.3c6.3-7.8,16.4-11.1,26-13.9
			c6.7-2,14.1-3.9,20.5-1.2c4.3,1.8,7.5,5.5,10.5,9c8.9,10.4,17.6,21,26.8,31.1c7.3,8,12.4,14.8,19.8,4.7
			c10.4-14.3,22.6-27.4,34.1-40.8c2-2.3,4.1-4.7,6.8-6.1c2.9-1.4,6.2-1.4,9.4-1.2c16.3,1.3,32.5,12.6,35.7,28.7
			c1.1,5.7,0.6,11.5-0.1,17.3c-7,57.8-30.8,113.5-71.9,155.1c-3,3.1-6.5,6.2-10.8,6.6c-5.8,0.5-10.7-4.1-14.5-8.5
			c-11.9-13.7-19.8-29.5-30.9-43.6c-2.3-2.9-4.7-5.9-6.1-9.3c-1.3-3.2-1.7-6.6-2.1-10c-0.8-7.5-1.3-15.5,2.1-22.3
			c3.4-6.8,12-11.5,18.8-8.2c2.7,1.3,4.7,3.6,6.6,5.8c3.6,4.1,14.4,28.5,19.5,28.3c6.9-0.3,11.7-23.7,13.5-28.8
			c1.4-4,3.2-8.5,7.1-10.3c2.7-1.2,5.9-0.9,8.7-0.1c3.5,0.9,6.9,2.5,9.6,4.9c7,6.6,6.8,17.6,5,27c-5.6,28.7-28.1,52.8-45.2,75.9
			c-1,1.3-2,2.6-3.3,3.6C81.1,229.6,38,139.2,30,125.7z"/>
	</g>
	<g>
		<g>
			<path class="st1" d="M31.6,124.7C20.9,106.3,11.8,86.8,7.1,65.9C5.9,60.5,5,55.1,4.5,49.6c-0.5-5.2-0.9-10.4,0.1-15.5
				C6.4,24,12.9,17,22.2,12.8c4.4-2,9-3.4,13.6-4.7c5-1.5,10.5-2.9,15.7-1.8c5.2,1.1,8.8,5.1,12.1,8.9c3.8,4.4,7.6,8.9,11.4,13.4
				c6.9,8.2,13.7,16.9,21.5,24.3c2.4,2.3,5.4,4.6,8.9,4.2c4.3-0.4,7-4.3,9.3-7.5c6.7-9.1,14.1-17.6,21.5-26.1
				c3.8-4.3,7.5-8.6,11.2-12.9c1.5-1.8,3.1-3.7,5.1-5c2.3-1.5,5-1.8,7.7-1.7c18.1,0.4,35.7,14.1,36.3,32.9
				c0.3,10.2-1.9,20.8-3.8,30.8c-1.8,9.6-4.2,19.2-7,28.6c-5.5,18.6-13,36.6-22.5,53.6c-9.4,17-20.8,32.9-34.1,47.1
				c-3.2,3.5-6.5,7.6-10.7,9.9c-4.8,2.6-9.5,0.4-13.2-3c-7.9-7.2-13.7-16.9-19.5-25.8c-3-4.5-5.9-9.1-9.1-13.6
				c-3.1-4.3-6.6-8.3-9.5-12.8c-3.1-4.7-3.8-10.1-4.3-15.6c-0.5-5.2-0.7-10.6,0.8-15.6c2.5-8.4,12.6-15.7,20.4-8.7
				c4.3,3.9,6.8,9.2,9.5,14.2c2.9,5.3,5.8,11,10,15.5c1.2,1.3,2.8,2.7,4.7,2.6c2.3-0.1,4.1-1.8,5.4-3.5c3.8-5,5.5-11.6,7.2-17.5
				c1.6-5.5,2.6-13.6,7.2-17.3c4.1-3.3,11-0.9,15,1.5c4.1,2.5,6.6,6.6,7.6,11.3c1.9,8.8-0.5,18.6-3.4,26.9
				c-6.4,18.5-18.8,34.3-30.7,49.6c-3,3.8-6,7.6-8.9,11.5c-2,2.6-3.8,6-7,7.2c-2.8,1-5.8,0.3-8.5-1c-8.7-4.3-15.4-13-21-20.6
				c-13.9-18.6-24.9-39.3-35.8-59.8C34.4,129.7,33.1,127.1,31.6,124.7c-1.2-2.1-4.5,0-3.2,2.1c4.3,7.3,8,14.9,12,22.3
				c6.3,11.6,12.9,23.1,20.2,34.1c6.5,9.9,13.7,20.1,22.8,27.8c5.7,4.8,14.1,9.8,21.3,5.1c2-1.3,3.4-3.3,4.8-5.2c1.5-2,3-4,4.6-6
				c3.1-4.1,6.3-8.1,9.5-12.2c6.3-8.2,12.4-16.5,17.7-25.3c5.2-8.6,9.5-17.8,12-27.6c2.2-8.8,3.6-19.1-0.4-27.6
				c-2-4.2-5.5-7.5-9.7-9.4c-4.4-2-10-3.5-14.6-1.5c-6.5,2.8-8.3,11-10,17.2c-1.8,6.4-3.4,13.3-7,18.9c-0.6,0.9-1.3,2-2.3,2.5
				c-0.7,0.4-0.8,0.4-1.3,0.1c-2-1.2-3.5-3.8-4.7-5.7c-3.7-5.7-6.8-11.8-10.2-17.7c-3.5-5.9-8.9-12.1-16.4-11.6
				c-9.4,0.6-15.8,9-17.3,17.6c-0.9,5.3-0.5,10.7,0,16c0.6,5.6,1.7,10.7,4.9,15.4c3.2,4.8,7,9.1,10.3,13.8c3.3,4.7,6.3,9.5,9.5,14.3
				c3.1,4.7,6.2,9.3,9.6,13.8c3.2,4.2,6.5,8.5,10.5,11.8c3.6,2.9,7.9,4.7,12.5,3.7c4.8-1,8.3-4.8,11.6-8.1
				c7.2-7.4,13.9-15.3,20.1-23.6c24.6-32.9,40.6-71.8,48.2-112.1c1-5.1,1.8-10.2,2.5-15.3c0.8-5.7,1.6-11.4,1.2-17.1
				c-0.6-9.3-4.9-17.6-11.7-23.8c-6.6-6-15.2-9.9-24-11c-4.8-0.6-10-0.7-14.2,2c-4.5,2.9-7.7,7.8-11.2,11.8
				c-7.9,9.1-15.9,18.1-23.4,27.5c-1.9,2.4-3.6,4.8-5.4,7.2c-1.3,1.7-3,4.1-5.3,4.4c-3.8,0.6-7.5-4.5-9.6-6.9
				c-8.3-9.2-16.3-18.7-24.3-28.1c-3.5-4.1-6.8-8.7-11.1-12c-4.1-3.1-8.8-4.5-13.9-4.2C41.1,2.4,35.9,4,31,5.6
				C26.2,7,21.5,8.7,17.2,11C8.3,15.8,2.4,23.7,0.7,33.6C-1.1,44,0.9,55.2,3.1,65.4c2.3,11,5.9,21.7,10.4,32.1
				c4.3,10.1,9.4,19.8,15,29.2C29.7,128.9,32.9,126.8,31.6,124.7z"/>
		</g>
	</g>
</g>
</svg>
