<svg id="圖層_1" data-name="圖層 1" xmlns="http://www.w3.org/2000/svg" viewBox="0 0 19.53 19.53"><defs><style>.cls-1{fill:#858d9f;}</style></defs><title>CLC_logo2</title><path class="cls-1" d="M12.35,11.13c.05.17.08.31.12.46a1.7,1.7,0,0,0,2.33,1.13,5.61,5.61,0,0,0,.93-.51c.76-.5,1.51-1,2.31-1.48a4.88,4.88,0,0,1,1.49-.56c.2-.05.25,0,.23.2a9.7,9.7,0,0,1-5.33,8.34,8.92,8.92,0,0,1-3.65,1A9.58,9.58,0,0,1,3,16.79,9.35,9.35,0,0,1,.3,11.15,9.77,9.77,0,0,1,5.72,1.22a9.6,9.6,0,0,1,5-1,9.78,9.78,0,0,1,8.9,7.9,9.64,9.64,0,0,1,.16,1.42.15.15,0,0,1-.15.19,7.46,7.46,0,0,0-2.91,1.35c-.57.38-1.13.78-1.73,1.12a1.8,1.8,0,0,1-.65.23,1.32,1.32,0,0,1-1.47-.94,2.2,2.2,0,0,1,1.07-2.59,1.07,1.07,0,0,1,.46-.11.63.63,0,0,1,.58.49c0,.08,0,.15.13.18s.27,0,.25-.19a1,1,0,0,0-.73-.82,1.16,1.16,0,0,0-.8.1A2.33,2.33,0,0,0,12.55,10,3.15,3.15,0,0,1,11.91,11a6,6,0,0,1-1.37,1.24c-.52.32-.76.2-.82-.42A7.33,7.33,0,0,1,9.83,10a33.3,33.3,0,0,1,.76-3.54c0-.13.06-.24-.11-.29s-.2,0-.23.13a31,31,0,0,0-.89,4.47.48.48,0,0,1-.07.24,4,4,0,0,1-2.63,1.85,1.58,1.58,0,0,1-1.83-1A3.71,3.71,0,0,1,6.24,7.41a2.31,2.31,0,0,1,.45-.21,1,1,0,0,1,1.45.91c0,.11,0,.2.16.22s.21,0,.21-.18A1.41,1.41,0,0,0,6.76,6.79,3,3,0,0,0,5.11,7.94a4,4,0,0,0-.73,3.73A2,2,0,0,0,7,13.16,4.39,4.39,0,0,0,9.14,11.8c0-.05.07-.15.16-.12s0,.13,0,.19c.09.76.5,1.28,1.39.7a6.55,6.55,0,0,0,1.42-1.26l.11-.13Z" transform="translate(-0.24 -0.23)"/></svg>