<?xml version="1.0" encoding="utf-8"?>
<!-- Generator: Adobe Illustrator 23.0.0, SVG Export Plug-In . SVG Version: 6.00 Build 0)  -->
<svg version="1.1" id="圖層_1" xmlns="http://www.w3.org/2000/svg" xmlns:xlink="http://www.w3.org/1999/xlink" x="0px" y="0px"
	 viewBox="0 0 171.2 170.9" style="enable-background:new 0 0 171.2 170.9;" xml:space="preserve">
<style type="text/css">
	.st0{opacity:0.7;fill:#008087;}
	.st1{fill:#008087;}
</style>
<path class="st0" d="M42.5,70.3c-3.8-7.3-7.5-15.5-12.8-21.6c-5.1-5.9-11-10.3-10.7-19c0.2-7.6,4.6-15.6,0.9-22.2
	c3.4,5,10.6,4.3,16.6,4.9c16.9,1.8,28.5,17.7,44.1,24.3c10.7,4.5,23.8,5.2,33-2.1C124.4,26.3,133.1,14,146,8.6
	c1.4-0.6,3.4-0.9,4.3,0.4c0.6,1,0.1,2.3-0.4,3.3c-2.8,5.5-6.5,10.5-10.9,14.8c2-1.3,4-2.5,6-3.8c1.5-0.9,3.1-1.9,4.9-1.9
	c1.8,0,3.7,1.4,3.5,3.1c-0.1,0.7-0.4,1.4-0.8,2c-2.7,4.4-5.8,8.4-9.4,12.1c2.4-1.8,5.3-3,8.4-3.3c1-0.1,2.2-0.1,2.9,0.7
	c1.1,1.3,0.1,3.2-0.9,4.6c-6.4,8.2-14.3,15.2-20.5,23.7c-4.5,6.2-13.8,14.3-13.2,22.8c0.1,1.1,0.6,2.1,1.1,3.1
	c6.9,13.2,17.5,24.1,30.2,31.9c4.7,2.9,7.8,6.4,12,9.8c1.1,0.9,7,7,8.1,6.8c-4.7,0.8-9.5,1.5-14.2,2.3c-5,0.8-14.5,0.2-18.4,3.7
	c-1.5,1.3-2.4,3.3-3.2,5.1c-3.1,7.1-6.1,14.2-9.2,21.2c0.8-1.5-3-9.3-3.6-11.1c-1.2-3.7-2.2-7.5-3.5-11.2c-2.7-8.2-7.3-15.4-12-22.5
	c-2.7-4-5.4-8.2-9.2-11c-3.9-2.9-9.2-4.4-13.6-2.5c-1.9,0.8-3.5,2.1-5.1,3.4c-7.4,6.2-14.9,12.4-22.3,18.5
	c-3.1,2.6-14.2,16.1-18.8,13.6c-2.3-1.2-1.3-4.7,0.1-6.9c-2.7,2.3-5.7,4.2-8.9,5.8c-2.2,1.1-5.7,1.5-6.6-0.8c-0.4-1.1,0-2.3,0.5-3.3
	c1.3-2.6,3.1-4.9,5.5-6.7c-5,2.6-10.1,5.3-15.1,7.9c-2.1,1.1-5.3,1.8-6.2-0.3c-0.6-1.4,0.4-2.9,1.3-4.1
	c7.9-10.1,17.2-18.9,24.8-29.2c5.7-7.9,14.2-15.6,13.8-26.1C47.1,79.4,44.8,74.8,42.5,70.3z"/>
<g>
	<g>
		<path class="st1" d="M35,60.4c-2.4-4.9-4.6-9.9-7.4-14.6c-1.4-2.3-2.9-4.5-4.7-6.6c-1.8-2.1-3.7-4-5.3-6.3
			c-1.6-2.2-3.1-4.9-3.5-7.7c-0.2-0.7-0.2-1.4-0.2-2.1c0-0.7,0-1.4,0.1-2.1c0.1-1.4,0.4-2.8,0.7-4.1c0.6-2.7,1.3-5.3,1.7-8
			c0.2-1.3,0.3-2.6,0.1-3.9c-0.1-1.3-0.5-2.5-1.1-3.6h0c-0.2-0.4,0-0.8,0.4-0.9c0.3-0.1,0.6-0.1,0.8,0.1l0.1,0.1
			c1.2,1.1,2.4,1.7,3.8,2.2c1.4,0.4,2.9,0.8,4.5,1c1.6,0.2,3.2,0.3,4.9,0.5c0.8,0.1,1.7,0.2,2.6,0.4c0.9,0.2,1.7,0.3,2.6,0.5
			c3.4,0.8,6.6,2.3,9.5,4.1c2.9,1.8,5.7,3.8,8.3,5.8c2.7,2.1,5.2,4.2,7.9,6.2c2.6,2,5.3,4,8.1,5.6c5.6,3.3,12.1,5.3,18.7,5.4
			c3.3,0,6.5-0.5,9.6-1.6c0.4-0.1,0.7-0.3,1.1-0.5c0.4-0.2,0.8-0.3,1.1-0.5c0.7-0.4,1.4-0.7,2.1-1.2l1-0.7l1-0.8
			c0.7-0.5,1.3-1,1.9-1.5c5.1-4.2,9.8-9,15-13.3c2.6-2.1,5.3-4.1,8.3-5.8c0.7-0.4,1.5-0.8,2.3-1.2c0.8-0.4,1.6-0.7,2.3-1
			c0.8-0.3,1.7-0.6,2.7-0.6c0.5,0,1,0.1,1.5,0.4c0.5,0.3,0.9,0.8,1,1.3c0.2,0.6,0.1,1.1,0,1.6c-0.1,0.5-0.3,0.9-0.5,1.3
			c-0.4,0.8-0.8,1.5-1.2,2.2c-0.9,1.5-1.8,2.9-2.8,4.2c-2,2.7-4.2,5.3-6.7,7.6l0,0l-0.9-1.1l3.5-2.1c1.2-0.7,2.3-1.4,3.6-2.1
			c1.3-0.6,2.8-1.2,4.4-0.8c0.8,0.2,1.5,0.6,2.1,1.2c0.6,0.6,1,1.5,0.9,2.4c-0.1,0.9-0.5,1.6-0.9,2.2c-0.4,0.6-0.8,1.2-1.2,1.7
			c-0.8,1.1-1.6,2.2-2.5,3.3c-1.7,2.2-3.6,4.2-5.5,6.2l0,0l-0.9-1.1c2.5-1.8,5.4-2.9,8.5-3.2c0.8,0,1.7-0.1,2.6,0.5
			c0.5,0.3,0.8,0.7,1,1.2c0.2,0.5,0.3,1.1,0.2,1.5c-0.3,1.9-1.5,3.1-2.4,4.2c-3.8,4.5-7.9,8.6-11.8,12.8c-2,2.1-3.9,4.3-5.7,6.5
			l-1.3,1.7c-0.5,0.6-0.9,1.2-1.4,1.7l-2.9,3.3c-1.9,2.2-3.7,4.4-5.3,6.7c-0.7,1.2-1.4,2.4-1.9,3.7c-0.3,0.6-0.4,1.3-0.6,1.9
			c-0.1,0.6-0.2,1.3-0.2,1.9c0,0.3,0,0.7,0,0.9c0,0.3,0.1,0.5,0.2,0.8c0.2,0.6,0.5,1.2,0.8,1.8l1,1.9l1,1.9c1.4,2.5,3,4.9,4.7,7.2
			c3.4,4.6,7.4,8.7,11.7,12.5c2.2,1.9,4.5,3.6,6.8,5.2c1.2,0.8,2.4,1.6,3.6,2.5c1.2,0.9,2.3,1.9,3.4,2.9l3.2,3c0.5,0.5,1,1,1.6,1.5
			l0.8,0.7c0.3,0.3,0.5,0.5,0.8,0.8c1,1,2,2.1,3,3.1c0.5,0.5,1,1,1.6,1.5c0.3,0.2,0.5,0.5,0.8,0.7c0.1,0.1,0.3,0.2,0.4,0.3
			c0.1,0,0.1,0.1,0.2,0.1c0,0,0,0,0,0c0,0,0,0-0.1,0l0,0l0.2,1.4l-7.2,1l-3.6,0.5c-1.2,0.2-2.4,0.3-3.7,0.5
			c-2.5,0.2-4.9,0.2-7.3,0.4c-2.4,0.2-4.8,0.5-6.9,1.4c-1,0.5-1.9,1.1-2.5,2.1c-0.7,0.9-1.2,2-1.7,3.1l-3.1,6.6l-6.1,13.2l0,0
			l-1.3-0.6c0,0,0-0.3-0.1-0.6c-0.1-0.3-0.1-0.6-0.2-0.9c-0.2-0.6-0.4-1.3-0.7-1.9c-0.5-1.3-1-2.6-1.6-3.9c-0.3-0.7-0.5-1.3-0.8-2
			c-0.1-0.4-0.2-0.7-0.3-1.1l-0.3-1l-1.2-4.1c-0.8-2.7-1.5-5.5-2.4-8c-1-2.6-2.1-5.1-3.4-7.6c-1.3-2.5-2.7-4.9-4.2-7.3
			c-1.5-2.4-2.9-4.8-4.5-7.1c-1.6-2.3-3.3-4.4-5.4-6.1c-2.1-1.6-4.5-2.8-7.1-3.1c-1.3-0.2-2.6-0.1-3.8,0.3c-1.2,0.3-2.3,1-3.4,1.7
			c-1.1,0.8-2.2,1.7-3.3,2.5L65,108l-13.3,10.4l-3.3,2.6c-1,0.8-2,1.8-3,2.8c-2,2-4.1,3.9-6.3,5.7c-1.1,0.9-2.3,1.8-3.5,2.5
			c-0.6,0.4-1.3,0.7-2,1c-0.7,0.3-1.5,0.5-2.4,0.5c-0.9,0-1.8-0.4-2.4-1.1c-0.6-0.7-0.8-1.7-0.8-2.5c0.1-1.6,0.8-3,1.5-4.3l0,0
			l1.1,0.9c-1.9,1.5-3.9,2.8-5.9,4c-0.5,0.3-1.1,0.6-1.6,0.8c-0.5,0.3-1.1,0.5-1.7,0.7c-1.2,0.4-2.4,0.7-3.8,0.5
			c-0.7-0.1-1.4-0.4-2-0.9c-0.6-0.6-0.9-1.3-0.9-2.1c0-0.7,0.2-1.4,0.4-2c0.3-0.6,0.5-1.1,0.8-1.6c1.2-2.1,2.9-3.9,4.9-5.4l0,0
			l0.7,1.2L10,127.7c-1,0.5-1.9,1-3,1.5c-1.1,0.5-2.2,0.8-3.5,0.8c-0.6,0-1.3-0.1-2-0.6c-0.6-0.4-1-1.1-1.1-1.8
			c-0.1-0.7,0.1-1.4,0.3-2c0.3-0.6,0.6-1.1,1-1.5c5.6-6.8,11.8-12.9,17.6-19.4c1.5-1.6,2.9-3.2,4.2-4.9c0.7-0.8,1.4-1.7,2-2.5
			c0.7-0.9,1.4-1.7,2.1-2.6c2.8-3.4,5.7-6.6,8-10.2c1.1-1.8,2.1-3.7,2.7-5.7c0.6-2,0.8-4.1,0.7-6.2C38.7,68.3,36.9,64.3,35,60.4z
			 M36.4,59.8c1,2,1.9,4,2.7,6.1c0.8,2.1,1.3,4.3,1.5,6.6c0.1,2.3-0.1,4.6-0.8,6.7c-0.6,2.2-1.6,4.2-2.8,6.1
			c-2.4,3.8-5.3,7-8.1,10.4c-0.7,0.8-1.4,1.7-2,2.5c-0.7,0.9-1.4,1.7-2.1,2.6c-1.4,1.7-2.8,3.3-4.3,5c-5.9,6.5-12.1,12.6-17.6,19.3
			c-0.6,0.8-1.1,1.7-1,2.4c0.1,0.3,0.2,0.7,0.5,0.9c0.3,0.2,0.7,0.3,1.1,0.3c0.9,0,1.9-0.3,2.8-0.7l2.9-1.4l11.7-5.8
			c0.4-0.2,0.8,0,1,0.3c0.2,0.3,0.1,0.7-0.2,0.9l0,0l0,0c-1.8,1.3-3.3,3-4.5,5c-0.6,1-1.1,2-1.1,2.9c0,0.4,0.2,0.8,0.5,1.1
			c0.3,0.3,0.7,0.5,1.2,0.5c1,0.1,2.1-0.1,3.1-0.4c0.5-0.2,1-0.4,1.5-0.7c0.5-0.3,1-0.5,1.5-0.8c2-1.1,3.9-2.4,5.7-3.8
			c0.3-0.2,0.8-0.2,1,0.1c0.2,0.2,0.2,0.6,0.1,0.8l0,0l0,0c-0.7,1.1-1.2,2.4-1.3,3.6c0,0.6,0.1,1.1,0.4,1.4c0.3,0.3,0.8,0.5,1.3,0.5
			c0.5,0,1.1-0.2,1.7-0.4c0.6-0.2,1.2-0.6,1.7-0.9c1.1-0.7,2.2-1.6,3.3-2.5c2.1-1.8,4.1-3.8,6.1-5.7c1-1,2-2,3.1-3l3.3-2.6
			l13.2-10.5l3.3-2.6c1.1-0.9,2.2-1.8,3.4-2.6c1.2-0.8,2.5-1.6,4.1-2.1c1.5-0.4,3.1-0.5,4.6-0.3c3,0.4,5.9,1.7,8.2,3.5
			c2.3,1.9,4.2,4.2,5.8,6.5c1.6,2.4,3.1,4.8,4.6,7.2c1.5,2.4,2.9,4.9,4.3,7.4c1.3,2.5,2.6,5.1,3.6,7.8c0.5,1.3,1,2.7,1.4,4.1
			l1.1,4.1l1.1,4.1l0.3,1c0.1,0.3,0.2,0.7,0.3,1c0.2,0.6,0.5,1.3,0.7,2c0.5,1.3,1,2.7,1.4,4c0.2,0.7,0.4,1.4,0.6,2.1
			c0.1,0.4,0.1,0.7,0.2,1.1c0,0.2,0,0.4,0,0.6c0,0.2,0,0.5-0.2,0.8c-0.2,0.4-0.6,0.5-1,0.3c-0.3-0.2-0.5-0.6-0.3-0.9l0,0l0,0
			l6.1-13.2l3.1-6.6c0.5-1.1,1.1-2.3,1.9-3.3c0.8-1.1,1.9-2,3.1-2.5c1.2-0.5,2.4-0.8,3.7-1.1c1.2-0.2,2.5-0.4,3.7-0.5
			c2.5-0.2,4.9-0.2,7.3-0.4c1.2-0.1,2.4-0.3,3.6-0.4l3.6-0.5l7.2-1l0.1,0c0.4-0.1,0.8,0.2,0.8,0.6c0.1,0.4-0.2,0.8-0.6,0.8l-0.1,0
			l-0.1,0c-0.1,0-0.3,0-0.3,0c-0.1,0-0.2,0-0.2-0.1c-0.1-0.1-0.2-0.1-0.3-0.2c-0.2-0.1-0.4-0.2-0.5-0.3c-0.3-0.2-0.6-0.5-0.9-0.7
			c-0.6-0.5-1.1-1-1.7-1.5c-1.1-1-2.1-2-3.1-3c-0.3-0.2-0.5-0.5-0.8-0.7l-0.8-0.7c-0.6-0.5-1.1-1-1.6-1.5l-3.2-2.9
			c-1.1-1-2.2-1.9-3.3-2.7c-1.1-0.9-2.3-1.6-3.6-2.4c-2.4-1.6-4.8-3.4-7.1-5.3c-4.5-3.8-8.6-8.1-12.2-12.8c-1.8-2.4-3.4-4.8-4.9-7.4
			l-1.1-1.9l-1-2c-0.3-0.6-0.7-1.3-1-2.1c-0.1-0.4-0.3-0.8-0.3-1.3c-0.1-0.5,0-0.8,0-1.3c0-0.8,0.2-1.6,0.3-2.4
			c0.2-0.8,0.4-1.5,0.7-2.2c0.5-1.5,1.3-2.8,2.1-4.1c1.6-2.5,3.6-4.8,5.5-7l2.9-3.3c0.5-0.5,0.9-1.1,1.4-1.6l1.4-1.7
			c1.9-2.3,3.8-4.5,5.9-6.6c4-4.2,8.2-8.2,12-12.6c0.5-0.6,1-1.1,1.3-1.6c0.4-0.5,0.7-1.1,0.7-1.6c0.1-0.5-0.1-0.8-0.4-1
			c-0.3-0.2-0.9-0.3-1.6-0.3c-2.7,0.2-5.4,1.1-7.7,2.7l0,0c-0.3,0.2-0.8,0.1-1-0.2c-0.2-0.3-0.2-0.7,0.1-0.9l0,0
			c1.9-1.9,3.7-3.9,5.4-6c0.8-1.1,1.6-2.1,2.4-3.3c0.4-0.6,0.8-1.1,1.1-1.7c0.4-0.6,0.7-1.1,0.7-1.5c0-0.5-0.2-0.9-0.5-1.3
			c-0.4-0.4-0.9-0.7-1.4-0.8c-0.5-0.1-1.1-0.1-1.7,0c-0.6,0.1-1.2,0.4-1.7,0.7c-1.1,0.6-2.3,1.4-3.5,2.1l-3.5,2.1
			c-0.3,0.2-0.8,0.1-1-0.2c-0.2-0.3-0.1-0.7,0.1-0.9l0,0l0,0c2.4-2.2,4.6-4.7,6.6-7.4c1-1.3,1.9-2.7,2.8-4.1
			c0.4-0.7,0.8-1.4,1.2-2.1c0.4-0.7,0.6-1.4,0.4-1.9c-0.1-0.5-0.6-0.8-1.3-0.8c-0.7,0-1.5,0.2-2.2,0.5c-0.8,0.3-1.5,0.6-2.3,1
			c-0.7,0.4-1.5,0.7-2.2,1.1c-2.9,1.6-5.6,3.6-8.1,5.7c-5.1,4.2-9.8,9-15,13.4c-0.6,0.5-1.3,1.1-2,1.6l-1,0.8l-1.1,0.7
			c-0.7,0.5-1.5,0.9-2.2,1.3c-0.4,0.2-0.8,0.4-1.2,0.5c-0.4,0.2-0.8,0.4-1.2,0.5c-3.2,1.2-6.7,1.8-10.1,1.8c-6.8,0-13.6-2-19.5-5.3
			c-3-1.6-5.8-3.5-8.5-5.5c-2.7-2-5.4-4-8-6c-2.7-2-5.4-3.8-8.2-5.4c-2.8-1.6-5.8-2.9-8.9-3.7c-0.8-0.2-1.6-0.3-2.3-0.5
			c-0.8-0.2-1.6-0.2-2.4-0.3c-1.6-0.2-3.3-0.2-5-0.5c-1.7-0.2-3.5-0.5-5.2-1.4c-1.7-0.8-3.2-2.2-3.9-4l1.2-0.7l0,0
			c0.7,1.3,1.1,2.7,1.3,4.2c0.2,1.4,0.1,2.9-0.1,4.3c-0.4,2.8-1.1,5.4-1.7,8.1c-0.3,1.3-0.5,2.6-0.6,4c-0.1,0.7,0,1.3-0.1,2
			c0.1,0.6,0.1,1.3,0.2,1.9c0.4,2.6,1.7,4.9,3.2,7.1c1.6,2.1,3.5,4.1,5.3,6.2c1.8,2.1,3.4,4.4,4.9,6.8C31.8,49.8,34,54.9,36.4,59.8z
			"/>
	</g>
	<g>
		<g>
			<path class="st1" d="M34.6,60.6c-3.2-6.5-5.9-13.2-10.2-19c-2.2-2.8-4.8-5.4-7-8.3c-1.1-1.5-2-3.1-2.7-4.8
				c-0.3-0.9-0.6-1.7-0.8-2.7c-0.2-0.9-0.2-1.8-0.3-2.7l0,0l0,0c0-1.9,0.3-3.7,0.6-5.6c0.3-1.8,0.8-3.6,1.2-5.4
				c0.4-1.8,0.7-3.6,0.8-5.4c0.1-1.8-0.3-3.6-1.1-5.2l0,0l0,0c-0.3-0.6,0.1-1.3,0.7-1.4c0.3-0.1,0.6,0,0.8,0.2l0.5,0.4
				c0.6,0.5,1.3,1,2.1,1.4c1.5,0.7,3.2,1.1,4.8,1.4c3.3,0.5,6.8,0.6,10.1,1.4c3.4,0.7,6.6,2.1,9.5,3.7c3,1.7,5.8,3.6,8.5,5.7
				c5.4,4.1,10.5,8.7,16.3,12.1c5.8,3.4,12.4,5.6,19.1,5.4c3.3-0.1,6.6-0.7,9.6-2.1c0.7-0.4,1.3-0.6,2.1-1.1c0.8-0.4,1.3-0.8,2-1.3
				c1.3-1,2.5-2.1,3.8-3.2c5-4.5,9.5-9.6,14.9-14.1c2.7-2.2,5.6-4.3,8.8-5.9c0.8-0.4,1.6-0.8,2.4-1.2l1.2-0.5c0.5-0.2,1-0.4,1.6-0.5
				c0.6-0.1,1.1-0.2,1.7-0.2c0.7,0,1.4,0.1,2.1,0.4c0.7,0.3,1.5,0.8,2,1.4c0.5,0.6,0.8,1.5,0.9,2.2c0.1,0.8,0,1.5-0.2,2.1
				c-0.2,0.5-0.4,1.1-0.6,1.6l-1.4,2.3l-3,4.4c-2.1,2.8-4.6,5.4-7.2,7.6l-1.5,1.3l-1-1.5l-0.8-1.2l-1.1-1.5l1.5-0.8
				c2.6-1.4,5.1-2.8,7.8-4.2c1.4-0.6,3.3-1.1,5.1-0.5c0.9,0.3,1.7,0.8,2.3,1.5c0.7,0.7,1.1,1.6,1.2,2.6c0.1,1-0.3,1.9-0.7,2.6
				c-0.4,0.7-0.9,1.2-1.3,1.9c-0.9,1.2-1.8,2.3-2.7,3.5c-1.8,2.3-3.9,4.4-6,6.5l-0.4,0.4l-0.4-0.5l-0.9-1.1l-0.4-0.4l0.5-0.3
				c2.4-1.7,5.1-2.8,8-3.1c1.4-0.2,3.2-0.2,4.3,1.1c0.6,0.6,0.8,1.5,0.8,2.3c-0.1,0.8-0.3,1.5-0.7,2.2c-0.7,1.3-1.7,2.3-2.6,3.4
				c-0.9,1.1-1.9,2.1-2.8,3.2c-1.9,2.1-3.9,4.1-5.8,6.1c-2,2-3.8,4.1-5.6,6.2c-0.9,1.1-1.9,2.1-2.8,3.2c-0.9,1.1-1.8,2.2-2.7,3.3
				c-1.8,2.1-3.7,4.2-5.5,6.4c-1.7,2.2-3.4,4.5-4.4,7l0,0l-0.6,1.9l0-0.1c-0.1,0.8-0.3,1.4-0.2,2.1c-0.1,0.7,0.1,1.3,0.4,2
				c0.6,1.3,1.2,2.6,2,3.9c1.4,2.5,3.2,4.9,4.7,7.3c3.3,4.8,7.4,9,11.7,12.9c2.2,1.8,4.6,3.6,6.9,5.4c1.2,0.9,2.4,1.7,3.6,2.5
				c1.2,0.9,2.3,1.9,3.4,2.8l6.4,6l3.1,3.1c1,1,2.1,2.1,3.2,2.8l0,0c0,0-0.2-0.1-0.3,0c-0.2,0.1-0.2,0.2-0.2,0.3l0.5-0.2l0,0l0,0
				l0,0l-0.2,0.6c0,0-0.2,0-0.1,0l0,0l0,0l0,0c0,0,0.1,0,0,0l0.3-0.4l0.2,1.4l0,0.4l-0.4,0c-4.8,0.6-9.5,1.3-14.3,1.9l-7.2,0.4
				c-2.4,0.2-4.8,0.4-6.9,1.3c-2.2,0.9-3.3,3.1-4.3,5.2l-3,6.5l-6.1,13.1l-0.1,0.3l-0.3-0.2l-1.3-0.6l0.4-0.1
				c-1.1,0-0.4-0.2-0.6-0.2l0,0l0-0.1l0-0.1c0-0.1,0-0.2,0-0.2l-0.1-0.5c-0.1-0.3-0.2-0.7-0.3-1c-0.2-0.7-0.4-1.3-0.7-2l-1.6-3.9
				c-0.6-1.3-1-2.7-1.4-4l-1.2-4c-0.8-2.7-1.4-5.4-2.5-8c-1-2.6-2.2-5.1-3.5-7.6c-1.4-2.4-2.8-4.9-4.2-7.3c-1.5-2.4-3-4.8-4.5-7.1
				c-1.6-2.3-3.4-4.4-5.7-6c-2.2-1.6-5-2.6-7.7-2.5c-1.4,0-2.7,0.4-3.9,1c-1.2,0.6-2.3,1.5-3.4,2.4l-6.6,5.2l-13.2,10.4
				c-4.4,3.5-8.1,7.7-12.7,11.1l-1.7,1.2l-1.9,1c-1.3,0.6-3,0.9-4.4,0.2c-1.5-0.7-2-2.5-1.7-4c0.2-1.5,0.8-2.8,1.6-4l0.2-0.4
				l0.3,0.3l1.1,0.9l0.3,0.3l-0.3,0.3c-2,1.6-4.1,3-6.4,4.2c-1.1,0.6-2.3,1.2-3.5,1.6c-1.3,0.4-2.6,0.5-4,0.2
				c-1.4-0.3-2.5-1.6-2.5-3.1c-0.1-1.5,0.6-2.6,1.2-3.8c1.3-2.3,3-4.2,5.1-5.8l0.3-0.3l0.2,0.4l0.7,1.2l0.2,0.4l-0.4,0.2L10,128.1
				l-3,1.5c-1,0.4-2.2,0.8-3.4,0.8c-1.2,0-2.5-0.4-3.2-1.5c-0.7-1.1-0.6-2.5,0-3.5l0.9-1.5l1.1-1.3l2.2-2.5c1.5-1.7,2.9-3.3,4.4-4.9
				c3-3.2,6-6.4,9-9.7c2.9-3.3,5.8-6.6,8.5-10.1c2.8-3.5,5.8-6.7,8.2-10.3c2.4-3.6,4.1-7.8,3.9-12.1C38.4,68.6,36.5,64.6,34.6,60.6z
				 M35.5,60.2c1.9,3.9,3.8,8.1,4,12.7c0.2,4.5-1.6,9-4.1,12.6c-2.5,3.7-5.5,7-8.2,10.4c-2.7,3.5-5.6,6.8-8.5,10.1
				c-3,3.3-6,6.4-9,9.6c-1.5,1.6-3,3.2-4.4,4.9L3.1,123l-1,1.3l-0.8,1.3c-0.5,0.9-0.5,1.9,0,2.8c0.5,0.8,1.5,1.2,2.5,1.2
				c2.1,0,4-1.2,6-2.1l11.8-5.8l-0.2,0.6l-0.7-1.2l0.6,0.1c-2,1.5-3.7,3.3-4.9,5.5c-0.6,1.1-1.2,2.2-1.1,3.3c0.1,1.1,0.9,2.1,2,2.4
				c1.1,0.3,2.4,0.2,3.5-0.2c1.2-0.4,2.3-1,3.4-1.5c2.2-1.2,4.3-2.6,6.3-4.1l0,0.6l-1.1-0.9l0.6-0.1c-0.7,1.2-1.3,2.4-1.5,3.8
				c-0.2,1.3,0.2,2.7,1.4,3.3c1.1,0.6,2.5,0.4,3.7-0.2l1.8-0.9l1.7-1.2c4.5-3.3,8.2-7.5,12.7-11.1l13.3-10.4l6.7-5.2
				c1.1-0.8,2.2-1.8,3.5-2.4c1.3-0.7,2.7-1,4.2-1.1c2.9-0.1,5.7,1,8.1,2.6c2.3,1.7,4.2,3.9,5.8,6.2c1.6,2.3,3,4.7,4.5,7.1
				c1.4,2.4,2.8,4.9,4.2,7.3c1.4,2.5,2.6,5,3.6,7.7c1.1,2.6,1.7,5.4,2.5,8.1l1.2,4c0.4,1.4,0.8,2.7,1.3,3.9l1.6,3.9
				c0.3,0.6,0.5,1.3,0.7,2c0.1,0.3,0.2,0.7,0.3,1l0.1,0.5c0,0.1,0,0.2,0,0.3l0,0.1l0,0.1l0,0c-0.2,0.1,0.5-0.1-0.6-0.1l0.4-0.1
				l1.3,0.6L112,156l6-13.1l3-6.5c0.5-1.1,1-2.2,1.7-3.2c0.7-1,1.7-1.9,2.9-2.4c2.3-1,4.8-1.2,7.2-1.4l7.2-0.4
				c4.7-0.6,9.5-1.3,14.3-1.9l-0.3,0.4l-0.2-1.4l0,0l0.3-0.4c0,0,0.1,0,0.2,0l0.1,0l0,0c0,0,0,0,0,0c0,0-0.1,0-0.1,0l-0.2,0.6l0,0
				l0,0l0,0l0.5-0.2c0,0-0.1,0.2-0.2,0.2c-0.2,0.1-0.3,0-0.3,0l0,0c-1.4-0.9-2.3-1.9-3.4-3l-3.1-3.1l-6.4-6
				c-1.1-0.9-2.2-1.9-3.3-2.8c-1.2-0.8-2.4-1.6-3.6-2.5c-2.3-1.8-4.7-3.5-7-5.4c-4.4-3.9-8.5-8.2-11.8-13c-1.6-2.5-3.3-4.9-4.8-7.4
				c-0.7-1.3-1.4-2.6-2-4c-0.7-1.3-0.5-3.1-0.3-4.5l0-0.1l0,0l0.6-2l0,0c2.2-5.4,6.4-9.4,10-13.7c0.9-1.1,1.8-2.1,2.6-3.3
				c0.9-1.1,1.8-2.1,2.8-3.2c1.8-2.1,3.7-4.3,5.7-6.3c1.9-2,3.9-4.1,5.8-6.1c0.9-1,1.9-2.1,2.8-3.1c0.9-1.1,1.9-2.1,2.5-3.3
				c0.6-1.1,0.8-2.5,0-3.4c-0.8-0.9-2.2-1-3.5-0.8c-2.7,0.3-5.3,1.4-7.5,3.1l0.1-0.8l0.9,1.1l-0.8,0c2-2,3.9-4.3,5.6-6.6
				c0.8-1.2,1.7-2.3,2.4-3.6c0.4-0.6,0.8-1.2,1.1-1.8c0.3-0.5,0.4-1.1,0.3-1.5c-0.1-0.5-0.3-0.9-0.7-1.3c-0.4-0.4-0.9-0.6-1.4-0.8
				c-1-0.3-2.2,0-3.3,0.7c-2.4,1.4-4.8,3-7.3,4.6l0.5-2.4l0.9,1.1l-2.5-0.2c2.4-2.4,4.4-4.9,6.3-7.6l2.6-4.2l1.1-2.1
				c0.1-0.3,0.2-0.5,0.3-0.8c0.1-0.2,0.1-0.3,0-0.4c0-0.1,0-0.1-0.1-0.1c-0.1,0-0.2-0.1-0.4,0c-0.2,0-0.5,0-0.8,0.1
				c-0.3,0.1-0.6,0.2-0.8,0.3l-1.1,0.5c-0.7,0.3-1.5,0.7-2.2,1c-2.9,1.4-5.6,3.3-8.2,5.3c-5.2,4-10.2,8.7-15.7,12.9
				c-1.4,1-2.8,2.1-4.2,3.1c-0.7,0.4-1.6,1-2.4,1.3c-0.7,0.4-1.7,0.8-2.5,1.1c-3.3,1.2-6.9,1.6-10.4,1.5c-7-0.3-13.7-2.6-19.5-6.1
				c-5.9-3.6-10.9-8.2-16.3-12.3c-5.3-4.1-11.1-8-17.8-9.4C30.7,4.6,27.3,4.4,23.9,4c-1.7-0.3-3.4-0.6-5-1.4
				c-0.8-0.4-1.5-0.9-2.2-1.4l-0.5-0.4c-0.1-0.1-0.2-0.1-0.4-0.1c-0.3,0-0.4,0.4-0.3,0.6l0,0c0.9,1.7,1.3,3.6,1.2,5.5
				c-0.1,1.9-0.4,3.7-0.8,5.6c-0.4,1.8-0.9,3.6-1.2,5.4c-0.3,1.8-0.6,3.6-0.6,5.5l0,0c0.1,3.6,1.6,6.9,3.8,9.8
				c2.1,2.9,4.8,5.4,7,8.3C29.5,47,32.3,53.8,35.5,60.2z"/>
		</g>
		<g>
			<path class="st1" d="M36.8,59.6l1.7,3.8c0.6,1.3,1.2,2.5,1.5,3.9c0.8,2.7,1.2,5.6,0.9,8.4c-0.3,2.8-1.3,5.6-2.6,8
				c-1.4,2.5-3,4.7-4.8,6.9c-1.7,2.2-3.6,4.2-5.3,6.4c-1.7,2.2-3.5,4.4-5.3,6.4c-3.6,4.3-7.5,8.2-11.3,12.3c-1.9,2-3.8,4.1-5.6,6.2
				c-0.9,1-1.8,2.1-2.7,3.2c-0.4,0.5-0.8,1.1-0.9,1.6c-0.1,0.5,0.1,1,0.5,1.1c1.1,0.3,2.5-0.1,3.7-0.7l3.7-1.8l7.5-3.7l1.9-0.9
				l0.9-0.5l0.2-0.1c0.1,0,0.3-0.1,0.4-0.1c0.3,0,0.6,0,0.8,0.2c0.5,0.3,0.7,1,0.4,1.5c-0.4,0.6-0.6,0.6-0.9,0.8
				c-0.5,0.4-1,0.9-1.5,1.4c-0.9,1-1.8,2.1-2.4,3.2c-0.7,1.1-1.4,2.5-0.6,3.3c0.3,0.3,1,0.4,1.6,0.4c0.6,0,1.3-0.2,1.9-0.4
				c1.2-0.5,2.5-1.1,3.7-1.8c1.2-0.7,2.4-1.4,3.5-2.2c0.6-0.4,1.1-0.8,1.6-1.2c0.3-0.3,1.1-0.5,1.5-0.1c0.5,0.3,0.7,1,0.4,1.5
				c-0.7,1.2-1.1,2.6-1,3.8c0.1,0.6,0.3,0.7,0.7,0.8c0.4,0.1,1-0.1,1.5-0.4l1.7-1l1.6-1.3c0.5-0.5,1.1-0.9,1.6-1.3l1.5-1.5l6.1-6.2
				c1-1.1,2.2-2,3.3-2.9l3.3-2.8l13.3-11l3.4-2.7c1.1-0.9,2.5-1.9,4.1-2.6c1.6-0.7,3.3-1,5-1.1c1.7,0,3.4,0.3,5,0.7
				c3.1,1,6,2.8,8.2,5c2.2,2.2,4.1,4.7,5.5,7.2c3.1,4.9,6,10,8.6,15.2c1.2,2.7,2.4,5.4,3.1,8.3c0.5,1.4,0.8,2.8,1.1,4.2l1,4.2
				c0.3,1.4,0.6,2.8,1,4.1l1.2,4.1c0.4,1.4,0.8,2.8,1,4.3c0,0.4,0.1,0.8,0.1,1.2c0,0.4-0.1,0.9-0.3,1.3c-0.2,0.5-1,0.9-1.6,0.7
				c-0.6-0.2-1-0.9-0.8-1.5l6.5-14.2l3.3-7c0.6-1.2,1.3-2.3,2.3-3.3c1-1,2.2-1.6,3.5-2.1c5.1-1.5,10.4-1.1,15.5-1.7l7.7-1l3.8-0.5
				l1-0.1c0.1,0,0.4-0.1,0.7,0c0.3,0.1,0.5,0.3,0.6,0.5c0.3,0.4,0.2,1.1-0.1,1.5c-0.2,0.2-0.4,0.3-0.7,0.4c-0.2,0-0.5,0-0.7,0l0,0
				l-0.3-0.1l0,0c-1.6-0.8-2.5-1.9-3.7-2.9l-3.3-3.2l-6.8-6.1c-1.2-0.9-2.3-2-3.6-2.8c-1.2-0.9-2.5-1.7-3.7-2.6l-3.7-2.7
				c-1.2-0.9-2.5-1.8-3.6-2.8c-4.6-4-8.8-8.6-12.3-13.6c-1.8-2.5-3.4-5.1-4.8-7.8c-0.7-1.3-1.4-2.7-1.9-4.2
				c-0.3-0.8-0.2-1.6-0.2-2.4c0-0.8,0.2-1.6,0.3-2.3l0,0l0,0c0.4-1.3,0.8-2.7,1.4-3.9c0.6-1.2,1.3-2.4,2.1-3.5
				c1.6-2.3,3.4-4.3,5.2-6.4c1.8-2,3.6-4,5.2-6.2l5.4-6.1c3.7-4,7.7-7.7,11.2-11.7c0.9-1,1.8-2,2.6-3.1c0.3-0.5,0.6-1.2,0.6-1.5
				c0-0.3-0.6-0.5-1.2-0.5c-2.6,0.1-5.2,0.9-7.4,2.3l-0.4,0.3c-0.2,0.1-0.5,0.2-0.8,0.2c-0.6-0.1-1-0.6-1-1.2c0-0.3,0.1-0.6,0.3-0.8
				l0.4-0.4l0.7-0.7c0.9-1,1.8-2,2.7-3c0.9-1,1.7-2.1,2.5-3.2c0.8-1.1,1.6-2.2,2.4-3.3c0.4-0.6,0.8-1.1,0.9-1.6
				c0.1-0.4-0.2-1-0.6-1.3c-0.9-0.7-2.2-0.6-3.4,0c-2.4,1.1-4.7,2.7-7,4l-0.4,0.3l-0.2,0.1c-0.1,0.1-0.2,0.1-0.4,0.2
				c-0.6,0.1-1.2-0.2-1.4-0.7c-0.1-0.3-0.1-0.6,0-0.8c0.1-0.3,0.3-0.5,0.4-0.6l0.7-0.7c1-0.9,1.9-1.9,2.8-2.9c0.9-1,1.7-2,2.6-3.1
				c0.8-1.1,1.5-2.2,2.3-3.3c0.8-1.1,1.4-2.3,2.1-3.4c0.3-0.5,0.5-1.2,0.3-1.6c-0.1-0.3-0.7-0.5-1.3-0.4c-1.2,0.1-2.4,0.8-3.6,1.3
				c-1.2,0.6-2.4,1.2-3.6,1.9c-9.3,5.6-16.2,14.2-25,20.8c-4.5,3.3-10.1,4.8-15.6,4.8c-5.5,0-11-1.2-16-3.4
				c-10.1-4.4-18-12.4-27.2-18c-2.3-1.4-4.7-2.6-7.2-3.6c-2.5-1-5.2-1.4-7.8-1.7c-2.7-0.3-5.4-0.3-8.1-1C18.8,6,16,4.3,14.9,1.6
				l-0.1-0.4L15.1,1l1.2-0.7L16.8,0L17,0.4c0.9,1.8,1.4,3.7,1.4,5.7c0,2-0.3,3.9-0.7,5.8c-0.4,1.9-0.9,3.7-1.3,5.6
				c-0.3,1.9-0.7,3.7-0.6,5.6l0-0.1c0.1,3.6,1.7,6.7,3.9,9.5c2.2,2.8,4.8,5.3,6.9,8.2C30.9,46.5,33.7,53.2,36.8,59.6z M36,60
				c-3.1-6.4-5.9-13-10.1-18.7c-2.1-2.8-4.7-5.3-6.9-8.2c-1.1-1.4-2.1-3-2.9-4.6c-0.4-0.8-0.7-1.7-0.9-2.6C15.1,25,15,24,14.9,23.1
				l0,0l0-0.1c0-2,0.4-3.8,0.7-5.8c0.4-1.9,0.9-3.7,1.3-5.6c0.4-1.8,0.7-3.7,0.7-5.6c0-1.8-0.4-3.7-1.3-5.3l0,0l0.6,0.1l-1.2,0.7
				l0.2-0.6c0.9,2.4,3.3,3.9,5.9,4.5c2.6,0.6,5.3,0.7,8,1c2.8,0.3,5.4,0.8,8,1.8c2.6,1,5,2.3,7.4,3.7c9.3,5.7,17.1,13.6,27,17.9
				c4.9,2.1,10.3,3.3,15.6,3.3c5.3,0,10.7-1.5,15-4.6c8.6-6.4,15.6-15.1,25-20.8c1.2-0.7,2.4-1.3,3.6-1.9l1.9-0.8
				c0.6-0.3,1.3-0.5,2.1-0.6c0.4,0,0.8-0.1,1.2,0.1c0.4,0.1,0.9,0.4,1.1,0.9c0.3,1-0.1,1.7-0.3,2.3c-0.7,1.2-1.3,2.4-2.1,3.5
				c-0.8,1.1-1.5,2.3-2.3,3.4c-0.8,1.1-1.7,2.2-2.6,3.2c-0.9,1-1.9,2-2.8,3l-0.7,0.7c-0.2,0.1-0.2,0.1-0.2,0.2c0,0.1,0,0.1,0,0.2
				c0,0.1,0.2,0.2,0.3,0.2c0,0,0,0,0.1,0L127,22l0.4-0.3c2.4-1.4,4.6-2.9,7.1-4.1c0.7-0.3,1.3-0.6,2.1-0.6c0.8,0,1.6,0.2,2.2,0.7
				c0.6,0.5,1.2,1.3,1,2.2c-0.2,0.8-0.7,1.4-1,1.9c-0.7,1.1-1.6,2.2-2.4,3.3c-0.8,1.1-1.7,2.2-2.5,3.2c-0.9,1-1.8,2-2.8,3l-0.7,0.7
				l-0.3,0.3c0,0-0.1,0.1-0.1,0.2c0,0.1,0.1,0.2,0.2,0.2c0.1,0,0.1,0,0.2,0l0.4-0.3c2.4-1.5,5.1-2.4,7.9-2.5c0.4,0,0.8,0,1.2,0.2
				c0.4,0.2,0.9,0.5,0.9,1.1c0.1,1-0.3,1.6-0.7,2.2c-0.9,1.1-1.8,2.2-2.7,3.2c-3.6,4.1-7.6,7.8-11.3,11.8l-5.4,6
				c-1.6,2.1-3.5,4.2-5.3,6.2c-1.8,2-3.6,4.1-5.1,6.3c-0.8,1.1-1.5,2.2-2.1,3.4c-0.6,1.2-1,2.5-1.4,3.7l0-0.1
				c-0.1,0.8-0.3,1.5-0.3,2.2c0,0.7,0,1.5,0.2,2.1c0.4,1.4,1.2,2.7,1.9,4c1.4,2.7,3,5.2,4.8,7.7c3.5,5,7.6,9.5,12.1,13.5
				c1.1,1,2.4,1.9,3.6,2.8l3.6,2.7c1.2,0.9,2.5,1.8,3.8,2.6c1.3,0.8,2.4,1.9,3.6,2.9l6.8,6.1l3.3,3.2c1.1,1,2.2,2.2,3.4,2.7l0,0l0,0
				l0.1,0l0,0h0c0.1,0,0.1,0,0.3,0c0,0,0.1,0,0.1-0.1c0.1-0.1,0.1-0.2,0-0.3c-0.1-0.1-0.1-0.1-0.4-0.1l-1,0.1l-3.8,0.5l-7.7,1
				c-5.1,0.6-10.4,0.3-15.3,1.7c-1.2,0.4-2.3,1-3.1,1.8c-0.9,0.8-1.5,1.9-2.1,3.1l-3.3,7l-6.5,14c0,0.3,0.3,0.3,0.4,0.1
				c0.1-0.2,0.1-0.5,0.1-0.8c0-0.3-0.1-0.6-0.2-0.9c-0.3-1.3-0.8-2.7-1.3-4l-1.6-4c-0.5-1.4-0.9-2.8-1.4-4.2
				c-1.7-5.6-3.3-10.8-6-15.8c-2.8-4.9-5.7-9.7-8.9-14.5c-3-4.7-6.6-8.9-11.5-10.2c-2.4-0.7-4.8-0.7-6.9,0.2c-1.1,0.5-2.1,1.1-3.2,2
				l-3.3,2.6l-13.7,10.5l-3.4,2.6c-1.1,0.9-2.3,1.7-3.3,2.7l-6.5,5.7l-1.7,1.4c-0.6,0.5-1.2,0.9-1.8,1.3l-1.9,1.2
				c-0.7,0.4-1.4,0.7-2.1,1c-0.8,0.2-1.6,0.5-2.7,0.3c-0.5-0.2-1-0.4-1.4-0.9c-0.3-0.5-0.4-1-0.5-1.4c0-1.8,0.8-3.1,1.6-4.3
				c0.1-0.2-0.2-0.5-0.5-0.2c-0.6,0.4-1.1,0.9-1.7,1.3c-1.1,0.8-2.3,1.6-3.6,2.3c-1.2,0.7-2.5,1.3-3.8,1.8c-0.7,0.2-1.4,0.4-2.2,0.4
				c-0.7,0-1.6,0-2.3-0.7c-0.7-0.6-0.7-1.7-0.5-2.4c0.2-0.7,0.6-1.4,0.9-2c0.7-1.2,1.6-2.4,2.6-3.4c0.5-0.5,1-1,1.6-1.4
				c0.2-0.2,0.7-0.5,0.7-0.5c0.1-0.1,0-0.3-0.1-0.3c-0.1-0.2-0.8,0.3-1.4,0.6l-1.9,0.9l-7.5,3.7L7,128.1c-1.3,0.6-2.7,1.2-4.4,0.7
				c-0.9-0.3-1.4-1.5-1.1-2.3c0.2-0.8,0.7-1.4,1.1-2c0.9-1.1,1.8-2.1,2.7-3.2c1.8-2.1,3.7-4.1,5.6-6.2c3.8-4.1,7.7-8,11.3-12.2
				c1.8-2.1,3.6-4.2,5.3-6.4c1.7-2.2,3.6-4.3,5.3-6.4c3.4-4.3,6.6-9,7.2-14.5c0.3-2.7,0-5.4-0.8-8c-0.4-1.3-1-2.6-1.5-3.8L36,60z"/>
		</g>
	</g>
</g>
</svg>
