<svg id="圖層_1" data-name="圖層 1" xmlns="http://www.w3.org/2000/svg" viewBox="0 0 19.36 19.35"><defs><style>.cls-1{fill:#858d9f;}</style></defs><title>CLC_ministry</title><path class="cls-1" d="M10,19.69a9.68,9.68,0,1,1,9.7-9.61A9.69,9.69,0,0,1,10,19.69Zm-.15-3.92h2.53c.49,0,.8-.24.81-.61s-.29-.57-.76-.62a2,2,0,0,1,.16-3.91c.8,0,1.61,0,2.41,0,.51,0,.72-.23.78-.73a1.89,1.89,0,0,1,2-1.83c.29,0,.34-.1.26-.36A8.3,8.3,0,0,0,8.57,1.83c-.37.07-.49.21-.48.58,0,.79,0,1.58,0,2.37A1.92,1.92,0,0,1,6.24,6.83c-.45,0-.67.27-.65.65s.25.56.68.57.78,0,1.17,0a2,2,0,1,1,0,3.91H5.06c-.54,0-.77.22-.82.74a1.86,1.86,0,0,1-.94,1.54c-.27.16-.28.29-.1.53a9.31,9.31,0,0,0,2,2c.23.17.37.2.53-.09a1.86,1.86,0,0,1,1.74-.95ZM6,10.63H7.26c.46,0,.75-.25.76-.6s-.29-.62-.78-.63H6.16A2,2,0,0,1,6,5.49c.53,0,.75-.27.75-.8s0-1.18,0-1.76,0-.58-.51-.33A8.3,8.3,0,0,0,2.17,12.79c.05.14,0,.36.26.35a.47.47,0,0,0,.4-.36,1.59,1.59,0,0,0,.07-.39,1.94,1.94,0,0,1,1.87-1.76C5.17,10.62,5.57,10.63,6,10.63Zm4.19,6.48c-.83,0-1.66,0-2.49,0a1,1,0,0,0-.54.12.45.45,0,0,0-.26.38c0,.17.19.18.31.22a8.24,8.24,0,0,0,3.91.42A8.33,8.33,0,0,0,18.32,10c0-.23.08-.55-.29-.61a.75.75,0,0,0-.88.46,1.64,1.64,0,0,0,0,.32A1.91,1.91,0,0,1,15.18,12H12.77c-.48,0-.79.25-.79.62s.27.57.75.61a1.94,1.94,0,0,1,1.8,2.08,1.92,1.92,0,0,1-2,1.83C11.77,17.12,11,17.11,10.16,17.11Z" transform="translate(-0.32 -0.33)"/></svg>