<?xml version="1.0" encoding="utf-8"?>
<!-- Generator: Adobe Illustrator 23.0.0, SVG Export Plug-In . SVG Version: 6.00 Build 0)  -->
<svg version="1.1" id="圖層_1" xmlns="http://www.w3.org/2000/svg" xmlns:xlink="http://www.w3.org/1999/xlink" x="0px" y="0px"
	 viewBox="0 0 153.6 197.9" style="enable-background:new 0 0 153.6 197.9;" xml:space="preserve">
<style type="text/css">
	.st0{opacity:0.7;fill:#C1C1C1;}
	.st1{fill:#FFFFFF;}
</style>
<g>
	<path class="st0" d="M97.2,62.4c14.8-2.5,31.6-3.6,43.2,6.1c11.3,9.4,13.5,25.9,13.1,40.6c-0.7,23.3-6.3,47.3-21,65.3
		c-14.8,18-40.2,28.5-62.3,21c-13.1-4.4-23.7-14.5-31.3-26.1c-7.6-11.6-12.6-24.6-17.5-37.6C0.8,77.4,50.9,70.3,97.2,62.4z"/>
	<path class="st1" d="M120.7,47.6c-33.9,4.2-64,18-96.8,25.3C3.2,77.5-9.2,65,8.4,46.2c7.5-7.9,36.8-11.2,38.1-22.1
		c0.4-3.2-0.7-6.4-1.2-9.7c-1-6.5,2.5-15.1,9.1-14.4c5.7,0.6,8,7.3,10,12.7c6.2,17.2,38,3.5,52.2,3.4c6.4,0,13.1,0.4,18.7,3.7
		c5.6,3.3,9.5,10,7.6,16.2C140.3,44.4,129.5,46.6,120.7,47.6z"/>
</g>
</svg>
