<svg id="圖層_1" data-name="圖層 1" xmlns="http://www.w3.org/2000/svg" viewBox="0 0 19.25 19.37"><defs><style>.cls-1{fill:#858d9f;}</style></defs><title>CLC_members</title><path class="cls-1" d="M13.68,8a2.57,2.57,0,0,0-.12-.82,1.6,1.6,0,0,0-.82-1,1.63,1.63,0,0,0-1.3,0,3.68,3.68,0,0,1-2.84,0,1.61,1.61,0,0,0-1.51.14A1.54,1.54,0,0,0,6.4,7.58c0,1.77,0,3.49,0,5.4a1.55,1.55,0,0,0,1.1,1.53c.3.1.34.23.34.53,0,1.29,0,2.6,0,3.87V19a.88.88,0,0,0,.2.66.57.57,0,0,0,.42.15h0c.4,0,.6-.27.6-.79v-.19c0-1.53,0-3.06,0-4.6,0-.57-.21-.79-.81-.84s-.68-.17-.68-.73V9.59c0-.54,0-1.1,0-1.65a.7.7,0,0,1,.21-.62.63.63,0,0,1,.61,0,4,4,0,0,0,3.29,0,.59.59,0,0,1,.56,0,.58.58,0,0,1,.2.54c0,1,0,2,0,3v1.95c0,.5-.11.61-.61.65-.66,0-.87.26-.88.92q0,.69,0,1.38V16.9c0,.72,0,1.45,0,2.18a.82.82,0,0,0,.21.62.63.63,0,0,0,.44.14c.26,0,.57-.15.58-.76V14.89c0-.19,0-.27.15-.31a1.82,1.82,0,0,0,1.34-2C13.67,11.06,13.67,9.53,13.68,8Z" transform="translate(-0.38 -0.48)"/><path class="cls-1" d="M2.3,8.44a4.26,4.26,0,0,0,3.4-.2.63.63,0,0,0,.42-.64.56.56,0,0,0-.39-.49.74.74,0,0,0-.59.07l-.06,0a3.26,3.26,0,0,1-2.53,0A1.63,1.63,0,0,0,1,7.36,1.56,1.56,0,0,0,.38,8.67v4.82a1.49,1.49,0,0,0,1,1.45c.28.1.33.24.33.55,0,1.18,0,2.36,0,3.54a.88.88,0,0,0,.2.66.56.56,0,0,0,.41.15h0c.59,0,.6-.6.6-.8V16.31q0-.78,0-1.56c0-.62-.2-.83-.81-.88s-.59-.18-.56-.6l0-4.34c0-.3.05-.49.15-.56S2,8.33,2.3,8.44Z" transform="translate(-0.38 -0.48)"/><path class="cls-1" d="M19.63,8.69a1.52,1.52,0,0,0-2.16-1.44,3.25,3.25,0,0,1-2.54,0c-.26-.11-.75-.32-1,.22s.24.75.52.88a4.32,4.32,0,0,0,3.24.14c.31-.1.5-.12.59-.06s.15.26.15.6c0,.85,0,3.75,0,4.33a.49.49,0,0,1-.5.55c-.72.05-.88.24-.89,1,0,1.34,0,2.68,0,4a1.12,1.12,0,0,0,.23.82.56.56,0,0,0,.38.14h0c.61,0,.61-.73.61-1V15.33c0-.2,0-.27.17-.33a1.62,1.62,0,0,0,1.17-1.7Z" transform="translate(-0.38 -0.48)"/><path class="cls-1" d="M10,5.26h0A2.39,2.39,0,0,0,10,.48h0A2.46,2.46,0,0,0,7.64,2.86a2.42,2.42,0,0,0,.72,1.69A2.36,2.36,0,0,0,10,5.26Zm1.17-2.38A1.13,1.13,0,0,1,10,4h0a1.15,1.15,0,1,1,0-2.3,1.09,1.09,0,0,1,.82.34A1.07,1.07,0,0,1,11.18,2.88Z" transform="translate(-0.38 -0.48)"/><path class="cls-1" d="M16.24,6.5h0a2.19,2.19,0,0,0,1.55-.67,2.24,2.24,0,0,0,.68-1.59,2.26,2.26,0,0,0-2.24-2.18h0A2.23,2.23,0,0,0,14,4.28,2.25,2.25,0,0,0,16.24,6.5Zm1-2.23a.95.95,0,0,1-1,1,1,1,0,0,1-1-1,1.1,1.1,0,0,1,.33-.73,1,1,0,0,1,.7-.29h0A1,1,0,0,1,17.24,4.27Z" transform="translate(-0.38 -0.48)"/><path class="cls-1" d="M3.74,6.5h0a2.23,2.23,0,0,0,1.56-.66A2.2,2.2,0,0,0,6,4.25,2.22,2.22,0,0,0,3.75,2.06h0a2.21,2.21,0,0,0-1.57.66,2.18,2.18,0,0,0-.65,1.55A2.29,2.29,0,0,0,3.74,6.5Zm-1-2.23a1,1,0,0,1,.32-.74.93.93,0,0,1,.71-.28,1,1,0,0,1,1,1A.94.94,0,0,1,4.5,5a1.06,1.06,0,0,1-.76.3A1,1,0,0,1,2.75,4.27Z" transform="translate(-0.38 -0.48)"/><path class="cls-1" d="M15.44,14.88A1.07,1.07,0,0,0,15.1,14a1.09,1.09,0,0,0-1-.09.58.58,0,0,0-.48.48A.53.53,0,0,0,14,15c.22.08.24.21.24.48,0,.9,0,1.79,0,2.68v.77a1.32,1.32,0,0,0,.08.54.59.59,0,0,0,.54.38h0a.56.56,0,0,0,.54-.43,2.38,2.38,0,0,0,.06-.55c0-.48,0-.95,0-1.43V16.28C15.45,15.81,15.45,15.35,15.44,14.88Z" transform="translate(-0.38 -0.48)"/><path class="cls-1" d="M5.05,13.93a.94.94,0,0,0-.48.82c0,.49,0,1,0,1.46v1.94c0,.34,0,.69,0,1s.24.66.59.66.57-.12.63-.68c0-.11,0-.22,0-.33V18c0-.84,0-1.68,0-2.52,0-.26,0-.39.25-.49a.55.55,0,0,0,.31-.47.62.62,0,0,0-.3-.54A1,1,0,0,0,5.05,13.93Z" transform="translate(-0.38 -0.48)"/></svg>