<?xml version="1.0" encoding="utf-8"?>
<!-- Generator: Adobe Illustrator 23.0.0, SVG Export Plug-In . SVG Version: 6.00 Build 0)  -->
<svg version="1.1" id="圖層_1" xmlns="http://www.w3.org/2000/svg" xmlns:xlink="http://www.w3.org/1999/xlink" x="0px" y="0px"
	 viewBox="0 0 359.4 106" style="enable-background:new 0 0 359.4 106;" xml:space="preserve">
<style type="text/css">
	.st0{fill:#FFFFFF;}
</style>
<path class="st0" d="M5.4,15.8c0,2,0.3,3.8,0.8,5.3c0.5,1.5,1.2,2.7,2.1,3.7c0.9,1,1.8,1.7,2.9,2.2c1.1,0.5,2.2,0.7,3.3,0.7
	c1.2,0,2.2-0.2,3.1-0.6c0.9-0.4,1.7-1,2.4-1.7c0.7-0.7,1.3-1.5,1.7-2.4c0.5-0.9,0.8-1.8,1-2.7h2.9c-0.3,1.4-0.7,2.7-1.3,3.9
	c-0.6,1.2-1.4,2.3-2.3,3.1c-0.9,0.9-2,1.6-3.3,2.1c-1.3,0.5-2.7,0.8-4.2,0.8c-1.8,0-3.5-0.3-4.9-1c-1.5-0.7-2.7-1.6-3.8-2.8
	c-1-1.2-1.8-2.8-2.4-4.6c-0.6-1.8-0.8-3.8-0.8-6.1c0-1.8,0.3-3.4,0.8-5.1c0.5-1.6,1.3-3.1,2.3-4.3c1-1.3,2.3-2.3,3.7-3
	c1.5-0.7,3.1-1.1,5-1.1c1.6,0,3,0.2,4.2,0.6c1.2,0.4,2.3,1,3.3,1.7c0.9,0.7,1.7,1.6,2.3,2.7c0.6,1,1.1,2.1,1.5,3.4h-3
	c-0.7-2-1.7-3.5-3.1-4.5c-1.3-1-3.1-1.5-5.2-1.5c-1.3,0-2.5,0.3-3.6,0.9C9.7,6.2,8.7,7,7.9,8c-0.8,1-1.4,2.2-1.9,3.5
	C5.6,12.9,5.4,14.3,5.4,15.8"/>
<polygon class="st0" points="45.1,2.9 45.1,14.5 59.6,14.5 59.6,2.9 62.4,2.9 62.4,29.6 59.6,29.6 59.6,17 45.1,17 45.1,29.6 
	42.3,29.6 42.3,2.9 "/>
<path class="st0" d="M92.6,2.9l9.7,26.6h-2.9l-3.1-8.5H84.9l-3.1,8.5h-2.9l9.8-26.6H92.6z M90.6,5.6L85.7,19h9.8L90.6,5.6z"/>
<polygon class="st0" points="122.5,2.9 136.1,26 136.1,2.9 138.9,2.9 138.9,29.6 135.1,29.6 121.6,6.6 121.6,29.6 118.7,29.6 
	118.7,2.9 "/>
<path class="st0" d="M158.1,16.1c0,1.8,0.2,3.5,0.7,4.9c0.5,1.4,1.1,2.6,2,3.6c0.8,1,1.8,1.7,2.9,2.3c1.1,0.5,2.3,0.8,3.5,0.8
	c0.7,0,1.4-0.1,2.1-0.4c0.7-0.2,1.4-0.6,2-1c0.6-0.4,1.2-0.9,1.8-1.5c0.6-0.6,1-1.3,1.4-2c0.4-0.7,0.7-1.4,1-2.2
	c0.2-0.8,0.4-1.6,0.4-2.4l-8.3-0.1l0-2.5l11,0.1l-0.1,13.9l-1.7,0l-0.8-4.7c-0.5,0.7-1,1.3-1.7,2c-0.7,0.6-1.4,1.2-2.2,1.7
	c-0.8,0.5-1.6,0.9-2.5,1.2c-0.9,0.3-1.7,0.4-2.5,0.4c-1.9,0-3.5-0.4-5-1.1c-1.5-0.7-2.7-1.7-3.8-3c-1-1.3-1.8-2.8-2.4-4.5
	c-0.5-1.7-0.8-3.6-0.8-5.6c0-1.2,0.1-2.3,0.4-3.4c0.2-1.1,0.6-2.2,1.1-3.2c0.5-1,1.1-2,1.7-2.9c0.7-0.9,1.5-1.6,2.4-2.3
	c0.9-0.6,1.9-1.1,2.9-1.5c1.1-0.4,2.2-0.5,3.5-0.5c1.6,0,3,0.2,4.2,0.6c1.2,0.4,2.3,1,3.2,1.7c0.9,0.7,1.7,1.6,2.3,2.7
	c0.6,1,1.1,2.1,1.4,3.4l-3,0c-0.7-2-1.7-3.5-3-4.4c-1.3-1-3.1-1.5-5.2-1.5c-1.3,0-2.5,0.3-3.7,0.9c-1.1,0.6-2.1,1.4-2.9,2.5
	c-0.8,1-1.4,2.2-1.9,3.6C158.4,13.1,158.2,14.6,158.1,16.1"/>
<polygon class="st0" points="213.8,2.9 213.8,5.5 198.9,5.5 198.9,14.5 212.9,14.5 212.9,17.1 198.9,17.1 198.9,27 214.5,27 
	214.5,29.6 196,29.6 196,2.9 "/>
<polygon class="st0" points="253.9,2.9 253.9,27 267.2,27 267.2,29.6 251,29.6 251,2.9 "/>
<rect x="284.5" y="2.9" class="st0" width="2.8" height="26.6"/>
<polygon class="st0" points="323.3,2.9 323.3,5.5 308.8,5.5 308.8,14.5 321.4,14.5 321.4,17.1 308.8,17.1 308.8,29.6 306,29.6 
	306,2.9 "/>
<polygon class="st0" points="357.1,2.9 357.1,5.5 342.2,5.5 342.2,14.5 356.2,14.5 356.2,17.1 342.2,17.1 342.2,27 357.8,27 
	357.8,29.6 339.3,29.6 339.3,2.9 "/>
<path class="st0" d="M13.3,79.9c0,2.8,0.4,5.3,1.3,7.5c0.9,2.2,2,4,3.4,5.4c1.4,1.5,3,2.6,4.9,3.3c1.8,0.8,3.8,1.1,5.7,1.1
	c1.5,0,2.9-0.3,4.3-0.8c1.3-0.5,2.5-1.2,3.7-2.1c1.1-0.9,2.2-1.9,3.2-3.1c1-1.2,2-2.4,2.9-3.7l4.5,3.3c-1,1.5-2.1,3-3.5,4.5
	c-1.4,1.4-2.9,2.7-4.6,3.8c-1.7,1.1-3.5,2-5.5,2.6c-2,0.7-4.1,1-6.3,1c-3.7,0-7.2-0.5-10.4-1.6c-3.2-1.1-5.9-2.6-8.2-4.6
	c-2.3-2-4.1-4.4-5.4-7.2c-1.3-2.8-1.9-5.9-1.9-9.3c0-3.3,0.6-6.4,1.8-9.1c1.2-2.8,2.9-5.2,5.2-7.2c2.2-2,4.9-3.6,8-4.7
	c3.1-1.1,6.5-1.7,10.3-1.7c2.5,0,4.8,0.3,6.9,0.9c2.1,0.6,4,1.4,5.7,2.4c1.7,1,3.2,2.3,4.6,3.7c1.3,1.4,2.5,3,3.5,4.8l-4.5,3.1
	c-0.9-1.3-1.9-2.5-3-3.7c-1.1-1.2-2.2-2.2-3.4-3c-1.2-0.9-2.5-1.5-3.9-2.1c-1.3-0.5-2.7-0.8-4.2-0.8c-2,0-3.9,0.4-5.7,1.1
	c-1.8,0.7-3.4,1.9-4.8,3.3c-1.4,1.5-2.5,3.3-3.3,5.4C13.7,74.6,13.3,77.1,13.3,79.9"/>
<polygon class="st0" points="80.1,81 80.1,101.7 69.4,101.7 69.4,58.2 80.1,58.2 80.1,77.3 97.6,77.3 97.6,58.2 108.2,58.2 
	108.2,101.7 97.6,101.7 97.6,81 "/>
<path class="st0" d="M132.2,58.2h10.7v28c0,1.7,0.3,3.2,0.8,4.7c0.5,1.5,1.3,2.8,2.2,3.9c1,1.1,2.2,2,3.5,2.6c1.4,0.6,2.9,1,4.7,1
	c1.7,0,3.2-0.3,4.6-1c1.4-0.6,2.5-1.5,3.5-2.6c1-1.1,1.7-2.4,2.2-3.9c0.5-1.5,0.8-3,0.8-4.7v-28h6.7v28c0,2.2-0.4,4.4-1.1,6.4
	c-0.8,2-2,3.8-3.6,5.2c-1.6,1.5-3.7,2.7-6.3,3.6c-2.5,0.9-5.6,1.3-9.2,1.3c-3.2,0-6-0.4-8.5-1.3c-2.4-0.9-4.5-2.1-6.1-3.6
	s-2.9-3.3-3.7-5.3c-0.8-2-1.3-4.2-1.3-6.4V58.2z"/>
<path class="st0" d="M196,58.2h16.4c2.8,0,5.3,0.3,7.4,0.9c2.1,0.6,3.9,1.4,5.3,2.5c1.4,1.1,2.5,2.3,3.2,3.8c0.7,1.5,1.1,3,1.1,4.7
	c0,1.2-0.2,2.4-0.7,3.5c-0.5,1.1-1.2,2.1-2,3c-0.9,0.9-1.9,1.8-3.1,2.5c-1.2,0.7-2.6,1.3-4.1,1.8l15.5,20.8h-11.6l-14.6-19.7h-1.9
	v19.7H196V58.2z M206.7,78.2h2.3c1.3,0,2.5-0.2,3.6-0.5c1.1-0.4,2.1-0.9,2.9-1.6c0.8-0.7,1.4-1.5,1.9-2.5c0.5-1,0.7-2.1,0.7-3.3
	c0-1.2-0.2-2.2-0.5-3.2c-0.4-1-0.8-1.8-1.5-2.5c-0.6-0.7-1.4-1.2-2.2-1.6c-0.9-0.4-1.8-0.6-2.9-0.6h-4.3V78.2z"/>
<path class="st0" d="M262.9,79.9c0,2.8,0.4,5.3,1.3,7.5c0.9,2.2,2,4,3.4,5.4c1.4,1.5,3,2.6,4.9,3.3c1.8,0.8,3.8,1.1,5.7,1.1
	c1.5,0,2.9-0.3,4.3-0.8c1.3-0.5,2.5-1.2,3.7-2.1c1.1-0.9,2.2-1.9,3.2-3.1c1-1.2,2-2.4,2.9-3.7l4.5,3.3c-1,1.5-2.1,3-3.5,4.5
	c-1.4,1.4-2.9,2.7-4.6,3.8c-1.7,1.1-3.5,2-5.5,2.6c-2,0.7-4.1,1-6.3,1c-3.7,0-7.2-0.5-10.4-1.6c-3.2-1.1-5.9-2.6-8.2-4.6
	c-2.3-2-4.1-4.4-5.4-7.2c-1.3-2.8-1.9-5.9-1.9-9.3c0-3.3,0.6-6.4,1.8-9.1s2.9-5.2,5.2-7.2c2.2-2,4.9-3.6,8-4.7
	c3.1-1.1,6.5-1.7,10.3-1.7c2.5,0,4.8,0.3,6.9,0.9c2.1,0.6,4,1.4,5.7,2.4c1.7,1,3.2,2.3,4.6,3.7c1.3,1.4,2.5,3,3.5,4.8l-4.5,3.1
	c-0.9-1.3-1.9-2.5-3-3.7c-1.1-1.2-2.2-2.2-3.5-3c-1.2-0.9-2.5-1.5-3.9-2.1c-1.3-0.5-2.8-0.8-4.2-0.8c-2,0-3.9,0.4-5.7,1.1
	c-1.8,0.7-3.4,1.9-4.8,3.3c-1.4,1.5-2.5,3.3-3.3,5.4C263.3,74.6,262.9,77.1,262.9,79.9"/>
<polygon class="st0" points="329.7,81 329.7,101.7 319,101.7 319,58.2 329.7,58.2 329.7,77.3 347.2,77.3 347.2,58.2 357.8,58.2 
	357.8,101.7 347.2,101.7 347.2,81 "/>
</svg>
